<mxfile host="app.diagrams.net" modified="2023-12-27T05:47:33.027Z" agent="Mozilla/5.0 (Windows NT 10.0; Win64; x64) AppleWebKit/537.36 (KHTML, like Gecko) Chrome/120.0.0.0 Safari/537.36" etag="-krwUJbh0W5IBfgDPpRw" version="22.1.12" type="github">
  <diagram name="第 1 页" id="46q6hkem0GwO8_k7FAA8">
    <mxGraphModel dx="2930" dy="730" grid="1" gridSize="10" guides="1" tooltips="1" connect="1" arrows="1" fold="1" page="1" pageScale="1" pageWidth="827" pageHeight="1169" math="0" shadow="0">
      <root>
        <mxCell id="0" />
        <mxCell id="1" parent="0" />
        <mxCell id="zqu9NT_KVwhcAB9xp01v-13" value="" style="group;fontSize=16;" vertex="1" connectable="0" parent="1">
          <mxGeometry x="-830" y="270" width="807" height="378" as="geometry" />
        </mxCell>
        <mxCell id="zqu9NT_KVwhcAB9xp01v-1" value="" style="shape=image;verticalLabelPosition=bottom;labelBackgroundColor=default;verticalAlign=top;aspect=fixed;imageAspect=0;image=data:image/svg+xml,PHN2ZyB4bWxucz0iaHR0cDovL3d3dy53My5vcmcvMjAwMC9zdmciIGRhdGEtbmFtZT0i5Zu+5bGCIDEiIGhlaWdodD0iMzc3LjYyIiB3aWR0aD0iODA2LjU1IiB2aWV3Qm94PSIwIDAgODA2LjU1IDM3Ny42MiI+JiN4YTsgPGRlZnM+JiN4YTsgIDxmaWx0ZXIgaWQ9InN2Z18xNzdfYmx1ciI+JiN4YTsgICA8ZmVHYXVzc2lhbkJsdXIgaW49IlNvdXJjZUdyYXBoaWMiIHN0ZERldmlhdGlvbj0iMCIvPiYjeGE7ICA8L2ZpbHRlcj4mI3hhOyA8L2RlZnM+JiN4YTsgPGc+JiN4YTsgIDx0aXRsZT5MYXllciAxPC90aXRsZT4mI3hhOyAgPHBhdGggY2xhc3M9ImNscy0xIiBkPSJtNDM4LjEsMzQwYTk5LjEyLDk5LjEyIDAgMCAwIDU0Ljg0LC01MyIgZmlsbD0ibm9uZSIgc3Ryb2tlPSIjYzFjMWMxIiBzdHJva2UtbWl0ZXJsaW1pdD0iMTAiIGlkPSJzdmdfMSIvPiYjeGE7ICA8cGF0aCBjbGFzcz0iY2xzLTEiIGQ9Im0zMTEuNTUsMjg3LjI5YTk5LjA5LDk5LjA5IDAgMCAwIDU0Ljc1LDUyLjcxIiBmaWxsPSJub25lIiBzdHJva2U9IiNjMWMxYzEiIHN0cm9rZS1taXRlcmxpbWl0PSIxMCIgaWQ9InN2Z18yIi8+JiN4YTsgIDxwYXRoIGNsYXNzPSJjbHMtMSIgZD0ibTM2Ni4zLDE1NS45M2E5OS4wOSw5OS4wOSAwIDAgMCAtNTQuNzUsNTIuNzUiIGZpbGw9Im5vbmUiIHN0cm9rZT0iI2MxYzFjMSIgc3Ryb2tlLW1pdGVybGltaXQ9IjEwIiBpZD0ic3ZnXzMiLz4mI3hhOyAgPHBhdGggY2xhc3M9ImNscy0xIiBkPSJtNDkyLjk0LDIwOC44OWE5OS4wOSw5OS4wOSAwIDAgMCAtNTQuODUsLTUzIiBmaWxsPSJub25lIiBzdHJva2U9IiNjMWMxYzEiIHN0cm9rZS1taXRlcmxpbWl0PSIxMCIgaWQ9InN2Z180Ii8+JiN4YTsgIDxwYXRoIGNsYXNzPSJjbHMtMSIgZD0ibTcxNC4xNywyNTguODFhNzAuNzMsNzAuNzMgMCAwIDAgNTUuMDUsLTY4Ljk1bDAsLTc2LjIyYTcwLjcxLDcwLjcxIDAgMCAwIC03MC43MSwtNzAuNzEiIGZpbGw9Im5vbmUiIHN0cm9rZT0iI2MxYzFjMSIgc3Ryb2tlLW1pdGVybGltaXQ9IjEwIiBpZD0ic3ZnXzc0Ii8+JiN4YTsgIDxwYXRoIGNsYXNzPSJjbHMtMSIgZD0ibTEwNC41OSw0Mi45M2E3MC43MSw3MC43MSAwIDAgMCAtNzAuNzEsNzAuNzFsMCw3Ni4yMmE3MC43Miw3MC43MiAwIDAgMCA1OSw2OS43MiIgZmlsbD0ibm9uZSIgc3Ryb2tlPSIjYzFjMWMxIiBzdHJva2UtbWl0ZXJsaW1pdD0iMTAiIGlkPSJzdmdfNzUiLz4mI3hhOyAgPHBhdGggY2xhc3M9ImNscy0yIiBkPSJtNDgyLjMzLDIzOC4wN2MwLC0wLjg4IC0wLjEyLC0xLjc1IC0wLjEyLC0yLjYzYTE3Ljc2LDE3Ljc2IDAgMCAxIDE3LjY3LC0xNy44NmMwLjg3LDAgMS42MSwwLjEyIDIuMzUsMC4xMiIgZmlsbD0ibm9uZSIgc3Ryb2tlPSIjMDAwIiBzdHJva2UtbWl0ZXJsaW1pdD0iOCIgc3Ryb2tlLXdpZHRoPSIxLjUzcHgiIGlkPSJzdmdfNzYiLz4mI3hhOyAgPHBhdGggY2xhc3M9ImNscy0yIiBkPSJtNDk0Ljk0LDI1Mi42OWEyMS43LDIxLjcgMCAwIDAgNC45NCwwLjYyYTE3Ljc3LDE3Ljc3IDAgMCAwIDE3LjY4LC0xNy44N2ExMS45MywxMS45MyAwIDAgMCAtMC4xMiwtMi4xMiIgZmlsbD0ibm9uZSIgc3Ryb2tlPSIjMDAwIiBzdHJva2UtbWl0ZXJsaW1pdD0iOCIgc3Ryb2tlLXdpZHRoPSIxLjUzcHgiIGlkPSJzdmdfNzciLz4mI3hhOyAgPHBhdGggY2xhc3M9ImNscy0yIiBkPSJtNDk5Ljg4LDI0OS41NmwtNS4wNiwzbDMuMDksNSIgZmlsbD0ibm9uZSIgc3Ryb2tlPSIjMDAwIiBzdHJva2UtbWl0ZXJsaW1pdD0iOCIgc3Ryb2tlLXdpZHRoPSIxLjUzcHgiIGlkPSJzdmdfNzgiLz4mI3hhOyAgPHBhdGggY2xhc3M9ImNscy0yIiBkPSJtNDk3LjI5LDIyMC44M2w1LjA3LC0zbC0zLjA5LC01IiBmaWxsPSJub25lIiBzdHJva2U9IiMwMDAiIHN0cm9rZS1taXRlcmxpbWl0PSI4IiBzdHJva2Utd2lkdGg9IjEuNTNweCIgaWQ9InN2Z183OSIvPiYjeGE7ICA8cGF0aCBjbGFzcz0iY2xzLTMiIGQ9Im01MTQuMzUsMjIyLjQ1bC03LjMsMGwwLDcuMjVsNy4zLDBsMCwtNy4yNXoiIGZpbGw9Im5vbmUiIHN0cm9rZS1taXRlcmxpbWl0PSI4IiBzdHJva2Utd2lkdGg9IjEuNTNweCIgc3Ryb2tlPSIjNjYyZDkxIiBpZD0ic3ZnXzgwIi8+JiN4YTsgIDxwYXRoIGNsYXNzPSJjbHMtMyIgZD0ibTQ4Ny4yOCwyNTAuNDRhNS4xMyw1LjEzIDAgMSAwIC01LjA3LC01LjEyYTUuMTQsNS4xNCAwIDAgMCA1LjA3LDUuMTJ6IiBmaWxsPSJub25lIiBzdHJva2UtbWl0ZXJsaW1pdD0iOCIgc3Ryb2tlLXdpZHRoPSIxLjUzcHgiIHN0cm9rZT0iIzY2MmQ5MSIgaWQ9InN2Z184MSIvPiYjeGE7ICA8bGluZSBjbGFzcz0iY2xzLTEiIHgxPSI3MDEuNDkiIHkxPSI0Mi45MyIgeDI9IjU5NS43OCIgeTI9IjQyLjkzIiBmaWxsPSJub25lIiBzdHJva2U9IiNjMWMxYzEiIHN0cm9rZS1taXRlcmxpbWl0PSIxMCIgaWQ9InN2Z184MiIvPiYjeGE7ICA8bGluZSBjbGFzcz0iY2xzLTEiIHgxPSI0ODguNzgiIHkxPSI0Mi45MyIgeDI9IjI5Ni42MSIgeTI9IjQyLjkzIiBmaWxsPSJub25lIiBzdHJva2U9IiNjMWMxYzEiIHN0cm9rZS1taXRlcmxpbWl0PSIxMCIgaWQ9InN2Z184MyIvPiYjeGE7ICA8bGluZSBjbGFzcz0iY2xzLTEiIHgxPSIyMTAuMSIgeTE9IjQyLjkzIiB4Mj0iMTA0LjU5IiB5Mj0iNDIuOTMiIGZpbGw9Im5vbmUiIHN0cm9rZT0iI2MxYzFjMSIgc3Ryb2tlLW1pdGVybGltaXQ9IjEwIiBpZD0ic3ZnXzg0Ii8+JiN4YTsgIDxwYXRoIGNsYXNzPSJjbHMtNSIgZD0ibTI0MC43MywzOWExMi42OSwxMi42OSAwIDEgMSAxMi42OSwxMi4zOGExMi41NCwxMi41NCAwIDAgMSAtMTIuNjksLTEyLjM4em0yMC40MiwtMjEuMzNhMjMuNjUsMjMuNjUgMCAwIDAgLTcuNzMsLTEuMjhjLTEyLjg0LDAgLTIzLjE5LDEwLjEgLTIzLjE5LDIyLjYxYTIyLjU4LDIyLjU4IDAgMCAwIDEzLjI3LDIwLjQ3bTIuMTksMC44NmEyMi42MywyMi42MyAwIDAgMCA3LjczLDEuMjhjMTIuODMsMCAyMy4xOSwtMTAuMSAyMy4xOSwtMjIuNjJhMjIuNTUsMjIuNTUgMCAwIDAgLTEuMTcsLTdtLTAuODcsLTIuNDJhMjMuMTIsMjMuMTIgMCAwIDAgLTEwLjc5LC0xMC44bS00LjA5LDUuNTRsLTEuMTcsMy4yN20xMC44LDUuNTVsLTQuMDksMS4yOG0tMC4xNCw5LjI1bDQuMDgsMS41Nm0tOC45LDguODJsLTEuODksLTMuN20tMTEuMDksMy44NGwxLjYxLC0zLjdtLTEwLjgsLTUuMjZsMy42NSwtMS40Mm0tMy42NSwtMTAuNjRsMy41LDEuMjhtNy4xNSwtN2wtMS42LC0zLjEzIiBmaWxsPSJub25lIiBzdHJva2UtbWl0ZXJsaW1pdD0iOCIgc3Ryb2tlLXdpZHRoPSIxLjUzcHgiIHN0cm9rZT0iIzUwNTA1MCIgaWQ9InN2Z18xMjciLz4mI3hhOyAgPHBhdGggY2xhc3M9ImNscy02IiBkPSJtNTY3LjIxLDU5LjU3bC00Ni41LDBsMCwtMzYuODRsNDYuNSwwbDAsMzYuODRtLTQ2LjUsLTI3LjYzbDQ1Ljc0LDBtLTI3LjE0LDYuMTRsLTEyLjQsMGwwLDE1LjM1bDEyLjQsMGwwLC0xNS4zNW00LjY1LDBsOS4zLDBtLTkuMjYsNi4xNGw5LjMsMG0tOS4zLDYuMTRsNi4yLDAiIGZpbGw9Im5vbmUiIHN0cm9rZS1taXRlcmxpbWl0PSI4IiBzdHJva2Utd2lkdGg9IjEuNTNweCIgc3Ryb2tlPSIjNTA1MDUwIiBzdHJva2UtbGluZWNhcD0ic3F1YXJlIiBpZD0ic3ZnXzEyOCIvPiYjeGE7ICA8bGluZSBjbGFzcz0iY2xzLTEiIHgxPSIyMTIuMjciIHkxPSIyNTkuNTgiIHgyPSIxNzIuMjIiIHkyPSIyNTkuNTgiIGZpbGw9Im5vbmUiIHN0cm9rZT0iI2MxYzFjMSIgc3Ryb2tlLW1pdGVybGltaXQ9IjEwIiBpZD0ic3ZnXzEyOSIvPiYjeGE7ICA8bGluZSBjbGFzcz0iY2xzLTEiIHgxPSI2MDYuMDIiIHkxPSIyNTkuNTgiIHgyPSI1NjUuOTciIHkyPSIyNTkuNTgiIGZpbGw9Im5vbmUiIHN0cm9rZT0iI2MxYzFjMSIgc3Ryb2tlLW1pdGVybGltaXQ9IjEwIiBpZD0ic3ZnXzEzMCIvPiYjeGE7ICA8cGF0aCBjbGFzcz0iY2xzLTciIGQ9Im0yMjQuMTcsMjQ3LjcyYTExLjg2LDExLjg2IDAgMSAxIC0xMS44NiwxMS44NmExMS44NiwxMS44NiAwIDAgMSAxMS44NiwtMTEuODZ6bS0xLjkxLDE3LjlsNiwtNmwtNiwtNiIgZmlsbD0ibm9uZSIgc3Ryb2tlPSIjYzFjMWMxIiBzdHJva2UtbWl0ZXJsaW1pdD0iOCIgc3Ryb2tlLXdpZHRoPSIxLjUzcHgiIHN0cm9rZS1saW5lY2FwPSJzcXVhcmUiIGlkPSJzdmdfMTMxIi8+JiN4YTsgIDxwYXRoIGNsYXNzPSJjbHMtNyIgZD0ibTYxNy44OCwyNDcuNzJhMTEuODYsMTEuODYgMCAxIDEgLTExLjg4LDExLjg2YTExLjg2LDExLjg2IDAgMCAxIDExLjg2LC0xMS44NmwwLjAyLDB6bS0xLjg4LDE3LjlsNiwtNmwtNiwtNiIgZmlsbD0ibm9uZSIgc3Ryb2tlPSIjYzFjMWMxIiBzdHJva2UtbWl0ZXJsaW1pdD0iOCIgc3Ryb2tlLXdpZHRoPSIxLjUzcHgiIHN0cm9rZS1saW5lY2FwPSJzcXVhcmUiIGlkPSJzdmdfMTMyIi8+JiN4YTsgIDxwYXRoIGNsYXNzPSJjbHMtMiIgZD0ibTY5OS4yMSwyNjFhMTEuMTUsMTEuMTUgMCAwIDAgLTguNzEsLTE3LjkzYTE1LjgzLDE1LjgzIDAgMCAwIC0xNS42NywtMTQuMzlhMTUuNjQsMTUuNjQgMCAwIDAgLTEzLjM0LDcuNjJhMTcuNzYsMTcuNzYgMCAwIDAgLTMsLTAuMTdhMTQuNDUsMTQuNDUgMCAwIDAgLTE0LjM0LDE0LjU2YTE0LjYsMTQuNiAwIDAgMCAxNC4zNCwxNC43M2wxMS42NiwwIiBmaWxsPSJub25lIiBzdHJva2U9IiMwMDAiIHN0cm9rZS1taXRlcmxpbWl0PSI4IiBzdHJva2Utd2lkdGg9IjEuNTNweCIgaWQ9InN2Z18xMzMiLz4mI3hhOyAgPHBhdGggY2xhc3M9ImNscy04IiBkPSJtNjcxLjA5LDI3MC41M2EyLjEsMi4xIDAgMCAxIDMsMGEyLjE0LDIuMTQgMCAwIDEgLTMsM2EyLjA4LDIuMDggMCAwIDEgMCwtM3ptMS45MSwtMTMuMTVhMy4zMSwzLjMxIDAgMSAwIDQuNTksMGEzLjMyLDMuMzIgMCAwIDAgLTQuNTksMHptMTEuNTgsLTQuMWE1LjIsNS4yIDAgMCAwIDAsNy4zOGE1LjI0LDUuMjQgMCAxIDAgMCwtNy4zOHptLTUuNDQsMTQuNzJhMy40OCwzLjQ4IDAgMCAwIDQuOTIsNC45MmEzLjQ4LDMuNDggMCAwIDAgLTQuOTIsLTQuOTJ6bTE0LC0yLjIzYTUuMyw1LjMgMCAwIDAgLTAuMTUsNy41MWE1LjQyLDUuNDIgMCAwIDAgNy42NiwtNy42NmE1LjMsNS4zIDAgMCAwIC03LjUxLDAuMTV6bS0xLjgyLC00LjQxbDIuMzgsMy44NW0tMTMuNzcsMi4zbC0yLjY5LC01bTYsNC45M2wyLjY0LC01Ljc2bS03LjQsLTIuNjhsNC42NSwtMW0tNC43NywyLjg5bDEzLjUsNi41OG0tMTcuMTUsLTQuNTVsLTEuNTIsN20xMS44NSwwLjM2bDYuNDYsLTAuMzRtLTE3LjM3LDAuNTRsMTAsLTEwLjI1bS01LjkxLDEwLjc3bC0zLjU5LDAuNDgiIGZpbGw9Im5vbmUiIHN0cm9rZS1taXRlcmxpbWl0PSI4IiBzdHJva2Utd2lkdGg9IjEuNTNweCIgc3Ryb2tlLWxpbmVjYXA9InNxdWFyZSIgc3Ryb2tlPSIjMjlhYmUyIiBpZD0ic3ZnXzEzNCIvPiYjeGE7ICA8cG9seWxpbmUgY2xhc3M9ImNscy0yIiBwb2ludHM9IjE1NC43OTkyOTE0OTE1MDg0OCwyNTkuMzg5MjcyNTcwNjEwMDUgMTU0Ljc5OTI5MTQ5MTUwODQ4LDIzMy4wNTkyODU5OTgzNDQ0MiAxMTguMDY5Mjg4MTM0NTc0ODksMjMzLjA1OTI4NTk5ODM0NDQyIDExOC4wNjkyODgxMzQ1NzQ4OSwyNzUuNTY5Mjk1NzYzOTY5NCAxNDIuODQ5Mjc5Mjg0NDc3MjMsMjc1LjU2OTI5NTc2Mzk2OTQiIGZpbGw9Im5vbmUiIHN0cm9rZT0iIzAwMCIgc3Ryb2tlLW1pdGVybGltaXQ9IjgiIHN0cm9rZS13aWR0aD0iMS41M3B4IiBpZD0ic3ZnXzEzNSIvPiYjeGE7ICA8bGluZSBjbGFzcz0iY2xzLTIiIHgxPSIxMjEuMiIgeTE9IjIzNy4yMyIgeDI9IjEzMC41NyIgeTI9IjIzNy4yMyIgZmlsbD0ibm9uZSIgc3Ryb2tlPSIjMDAwIiBzdHJva2UtbWl0ZXJsaW1pdD0iOCIgc3Ryb2tlLXdpZHRoPSIxLjUzcHgiIGlkPSJzdmdfMTM2Ii8+JiN4YTsgIDxsaW5lIGNsYXNzPSJjbHMtMiIgeDE9IjEyOC4yNCIgeTE9IjI0Mi42NyIgeDI9IjE0MS4zMSIgeTI9IjI0Mi42NyIgZmlsbD0ibm9uZSIgc3Ryb2tlPSIjMDAwIiBzdHJva2UtbWl0ZXJsaW1pdD0iOCIgc3Ryb2tlLXdpZHRoPSIxLjUzcHgiIGlkPSJzdmdfMTM3Ii8+JiN4YTsgIDxsaW5lIGNsYXNzPSJjbHMtMiIgeDE9IjEzNC43NyIgeTE9IjI0OC4wMyIgeDI9IjE0Ny41NiIgeTI9IjI0OC4wMyIgZmlsbD0ibm9uZSIgc3Ryb2tlPSIjMDAwIiBzdHJva2UtbWl0ZXJsaW1pdD0iOCIgc3Ryb2tlLXdpZHRoPSIxLjUzcHgiIGlkPSJzdmdfMTM4Ii8+JiN4YTsgIDxsaW5lIGNsYXNzPSJjbHMtMiIgeDE9IjEzNC43NyIgeTE9IjI1My4wNyIgeDI9IjE0NC4zOCIgeTI9IjI1My4wNyIgZmlsbD0ibm9uZSIgc3Ryb2tlPSIjMDAwIiBzdHJva2UtbWl0ZXJsaW1pdD0iOCIgc3Ryb2tlLXdpZHRoPSIxLjUzcHgiIGlkPSJzdmdfMTM5Ii8+JiN4YTsgIDxsaW5lIGNsYXNzPSJjbHMtMiIgeDE9IjEzNy40MSIgeTE9IjI1OC4xMiIgeDI9IjEyOC4yNCIgeTI9IjI1OC4xMiIgZmlsbD0ibm9uZSIgc3Ryb2tlPSIjMDAwIiBzdHJva2UtbWl0ZXJsaW1pdD0iOCIgc3Ryb2tlLXdpZHRoPSIxLjUzcHgiIGlkPSJzdmdfMTQwIi8+JiN4YTsgIDxsaW5lIGNsYXNzPSJjbHMtMiIgeDE9IjEyOC4yNCIgeTE9IjI2Mi45MiIgeDI9IjE0MS4zMSIgeTI9IjI2Mi45MiIgZmlsbD0ibm9uZSIgc3Ryb2tlPSIjMDAwIiBzdHJva2UtbWl0ZXJsaW1pdD0iOCIgc3Ryb2tlLXdpZHRoPSIxLjUzcHgiIGlkPSJzdmdfMTQxIi8+JiN4YTsgIDxsaW5lIGNsYXNzPSJjbHMtMiIgeDE9IjEzMC41NyIgeTE9IjI2OC4yIiB4Mj0iMTIxLjIiIHkyPSIyNjguMiIgZmlsbD0ibm9uZSIgc3Ryb2tlPSIjMDAwIiBzdHJva2UtbWl0ZXJsaW1pdD0iOCIgc3Ryb2tlLXdpZHRoPSIxLjUzcHgiIGlkPSJzdmdfMTQyIi8+JiN4YTsgIDxnIGlkPSLpobXpnaItMSI+JiN4YTsgICA8ZyBpZD0i55S75p2/Ij4mI3hhOyAgICA8ZyBpZD0i55u057q/LTIiPiYjeGE7ICAgICA8bGluZSBjbGFzcz0iY2xzLTEwIiB4MT0iMjg3Ljg1IiB5MT0iMjI2LjYxIiB4Mj0iMzA1Ljg1IiB5Mj0iMjE4LjM2IiBmaWxsPSJub25lIiBzdHJva2U9IiMwYjBiMGIiIHN0cm9rZS1saW5lY2FwPSJyb3VuZCIgc3Ryb2tlLXdpZHRoPSIycHgiIGlkPSJzdmdfMTQ1Ii8+JiN4YTsgICAgIDxsaW5lIGNsYXNzPSJjbHMtMTAiIHgxPSIyODcuODUiIHkxPSIyMzYuMzYiIHgyPSIyOTguMzUiIHkyPSIyMzEuODYiIGZpbGw9Im5vbmUiIHN0cm9rZT0iIzBiMGIwYiIgc3Ryb2tlLWxpbmVjYXA9InJvdW5kIiBzdHJva2Utd2lkdGg9IjJweCIgaWQ9InN2Z18xNDYiLz4mI3hhOyAgICAgPGxpbmUgY2xhc3M9ImNscy0xMCIgeDE9IjI4Ny44NSIgeTE9IjI0NS4zNiIgeDI9IjI5Ny42IiB5Mj0iMjQwLjg2IiBmaWxsPSJub25lIiBzdHJva2U9IiMwYjBiMGIiIHN0cm9rZS1saW5lY2FwPSJyb3VuZCIgc3Ryb2tlLXdpZHRoPSIycHgiIGlkPSJzdmdfMTQ3Ii8+JiN4YTsgICAgIDxsaW5lIGNsYXNzPSJjbHMtMTAiIHgxPSIzMDUuODUiIHkxPSIyNDQuNjEiIHgyPSIzMjUuMzUiIHkyPSIyMzYuMzYiIGZpbGw9Im5vbmUiIHN0cm9rZT0iIzBiMGIwYiIgc3Ryb2tlLWxpbmVjYXA9InJvdW5kIiBzdHJva2Utd2lkdGg9IjJweCIgaWQ9InN2Z18xNDgiLz4mI3hhOyAgICAgPGxpbmUgY2xhc3M9ImNscy0xMCIgeDE9IjMwNS44NSIgeTE9IjI1My42MSIgeDI9IjMxNC44NSIgeTI9IjI0OS44NiIgZmlsbD0ibm9uZSIgc3Ryb2tlPSIjMGIwYjBiIiBzdHJva2UtbGluZWNhcD0icm91bmQiIHN0cm9rZS13aWR0aD0iMnB4IiBpZD0ic3ZnXzE0OSIvPiYjeGE7ICAgICA8bGluZSBjbGFzcz0iY2xzLTEwIiB4MT0iMzA1Ljg1IiB5MT0iMjM0Ljg2IiB4Mj0iMzI0LjYiIHkyPSIyMjYuNjEiIGZpbGw9Im5vbmUiIHN0cm9rZT0iIzBiMGIwYiIgc3Ryb2tlLWxpbmVjYXA9InJvdW5kIiBzdHJva2Utd2lkdGg9IjJweCIgaWQ9InN2Z18xNTAiLz4mI3hhOyAgICAgPGxpbmUgY2xhc3M9ImNscy0xMCIgeDE9IjI4Ny44NSIgeTE9IjIyNi42MSIgeDI9IjMwNS44NSIgeTI9IjIzNC44NiIgZmlsbD0ibm9uZSIgc3Ryb2tlPSIjMGIwYjBiIiBzdHJva2UtbGluZWNhcD0icm91bmQiIHN0cm9rZS13aWR0aD0iMnB4IiBpZD0ic3ZnXzE1MSIvPiYjeGE7ICAgICA8bGluZSBjbGFzcz0iY2xzLTEwIiB4MT0iMjg3Ljg1IiB5MT0iMjM2LjM2IiB4Mj0iMzA1Ljg1IiB5Mj0iMjQ0LjYxIiBmaWxsPSJub25lIiBzdHJva2U9IiMwYjBiMGIiIHN0cm9rZS1saW5lY2FwPSJyb3VuZCIgc3Ryb2tlLXdpZHRoPSIycHgiIGlkPSJzdmdfMTUyIi8+JiN4YTsgICAgIDxsaW5lIGNsYXNzPSJjbHMtMTAiIHgxPSIyODcuODUiIHkxPSIyNDUuMzYiIHgyPSIzMDUuODUiIHkyPSIyNTMuNjEiIGZpbGw9Im5vbmUiIHN0cm9rZT0iIzBiMGIwYiIgc3Ryb2tlLWxpbmVjYXA9InJvdW5kIiBzdHJva2Utd2lkdGg9IjJweCIgaWQ9InN2Z18xNTMiLz4mI3hhOyAgICAgPGxpbmUgY2xhc3M9ImNscy0xMCIgeDE9IjMxNC44NSIgeTE9IjIzMS4xMSIgeDI9IjMyNS4zNSIgeTI9IjIzNi4zNiIgZmlsbD0ibm9uZSIgc3Ryb2tlPSIjMGIwYjBiIiBzdHJva2UtbGluZWNhcD0icm91bmQiIHN0cm9rZS13aWR0aD0iMnB4IiBpZD0ic3ZnXzE1NCIvPiYjeGE7ICAgICA8bGluZSBjbGFzcz0iY2xzLTEwIiB4MT0iMzA1Ljg1IiB5MT0iMjE4LjM2IiB4Mj0iMzI0LjYiIHkyPSIyMjYuNjEiIGZpbGw9Im5vbmUiIHN0cm9rZT0iIzBiMGIwYiIgc3Ryb2tlLWxpbmVjYXA9InJvdW5kIiBzdHJva2Utd2lkdGg9IjJweCIgaWQ9InN2Z18xNTUiLz4mI3hhOyAgICAgPGNpcmNsZSBpZD0i5qSt5ZyG5b2iIiBjbGFzcz0iY2xzLTExIiBjeD0iMzIxLjYiIGN5PSIyNDYuMTEiIHI9IjYuNzUiIGZpbGw9Im5vbmUiIHN0cm9rZS13aWR0aD0iMnB4IiBzdHJva2U9IiM0OGFlZTQiLz4mI3hhOyAgICAgPGxpbmUgaWQ9IuebtOe6vyIgY2xhc3M9ImNscy0xMiIgeDE9IjMxOC4yMiIgeTE9IjI0Mi43NCIgeDI9IjMxOC4yMiIgeTI9IjI0NC45OSIgZmlsbD0ibm9uZSIgc3Ryb2tlLWxpbmVjYXA9InNxdWFyZSIgc3Ryb2tlPSIjNWQ1ZTVlIi8+JiN4YTsgICAgIDxsaW5lIGNsYXNzPSJjbHMtMTIiIHgxPSIzMjQuOTciIHkxPSIyNDIuNzQiIHgyPSIzMjQuOTciIHkyPSIyNDQuOTkiIGZpbGw9Im5vbmUiIHN0cm9rZS1saW5lY2FwPSJzcXVhcmUiIHN0cm9rZT0iIzVkNWU1ZSIgaWQ9InN2Z18xNTYiLz4mI3hhOyAgICAgPGxpbmUgY2xhc3M9ImNscy0xMiIgeDE9IjMyNC45NyIgeTE9IjI0Ny4yNCIgeDI9IjMyNC45NyIgeTI9IjI0OS40OSIgZmlsbD0ibm9uZSIgc3Ryb2tlLWxpbmVjYXA9InNxdWFyZSIgc3Ryb2tlPSIjNWQ1ZTVlIiBpZD0ic3ZnXzE1NyIvPiYjeGE7ICAgICA8bGluZSBjbGFzcz0iY2xzLTEyIiB4MT0iMzE4LjIyIiB5MT0iMjQ3LjI0IiB4Mj0iMzE4LjIyIiB5Mj0iMjQ5LjQ5IiBmaWxsPSJub25lIiBzdHJva2UtbGluZWNhcD0ic3F1YXJlIiBzdHJva2U9IiM1ZDVlNWUiIGlkPSJzdmdfMTU4Ii8+JiN4YTsgICAgIDxsaW5lIGlkPSLnm7Tnur8tNCIgY2xhc3M9ImNscy0xMiIgeDE9IjMxOC4yMiIgeTE9IjI0Mi43NCIgeDI9IjMyMC40NyIgeTI9IjI0Mi43NCIgZmlsbD0ibm9uZSIgc3Ryb2tlLWxpbmVjYXA9InNxdWFyZSIgc3Ryb2tlPSIjNWQ1ZTVlIi8+JiN4YTsgICAgIDxsaW5lIGNsYXNzPSJjbHMtMTIiIHgxPSIzMjIuNzIiIHkxPSIyNDIuNzQiIHgyPSIzMjQuOTciIHkyPSIyNDIuNzQiIGZpbGw9Im5vbmUiIHN0cm9rZS1saW5lY2FwPSJzcXVhcmUiIHN0cm9rZT0iIzVkNWU1ZSIgaWQ9InN2Z18xNTkiLz4mI3hhOyAgICAgPGxpbmUgY2xhc3M9ImNscy0xMiIgeDE9IjMxOC4yMiIgeTE9IjI0OS40OSIgeDI9IjMyMC40NyIgeTI9IjI0OS40OSIgZmlsbD0ibm9uZSIgc3Ryb2tlLWxpbmVjYXA9InNxdWFyZSIgc3Ryb2tlPSIjNWQ1ZTVlIiBpZD0ic3ZnXzE2MCIvPiYjeGE7ICAgICA8bGluZSBjbGFzcz0iY2xzLTEyIiB4MT0iMzIyLjcyIiB5MT0iMjQ5LjQ5IiB4Mj0iMzI0Ljk3IiB5Mj0iMjQ5LjQ5IiBmaWxsPSJub25lIiBzdHJva2UtbGluZWNhcD0ic3F1YXJlIiBzdHJva2U9IiM1ZDVlNWUiIGlkPSJzdmdfMTYxIi8+JiN4YTsgICAgPC9nPiYjeGE7ICAgPC9nPiYjeGE7ICA8L2c+JiN4YTsgIDxnIGlkPSLpobXpnaItMS0yIiBkYXRhLW5hbWU9Iumhtemdoi0xIj4mI3hhOyAgIDxnIGlkPSLnlLvmnb8tMiIgZGF0YS1uYW1lPSLnlLvmnb8iPiYjeGE7ICAgIDxnIGlkPSJBcmNoaXRlY3QtU2VhcmNoLS0iPiYjeGE7ICAgICA8ZyBpZD0i5qSt5ZyG5b2iLTIiIGRhdGEtbmFtZT0i5qSt5ZyG5b2iIj4mI3hhOyAgICAgIDxjaXJjbGUgY2xhc3M9ImNscy0xMyIgY3g9IjQxMC4yMiIgY3k9IjE0My40MiIgcj0iMTEuNDIiIGZpbGw9Im5vbmUiIHN0cm9rZS13aWR0aD0iMnB4IiBzdHJva2U9IiM3NTc5YzAiIGlkPSJzdmdfMTYyIi8+JiN4YTsgICAgICA8bGluZSBpZD0i55u057q/LTMiIGNsYXNzPSJjbHMtMTQiIHgxPSIzODIuMDMiIHkxPSIxMzIuMzYiIHgyPSIzOTkuMTYiIHkyPSIxMzIuMzYiIGZpbGw9Im5vbmUiIHN0cm9rZT0iIzAwMCIgc3Ryb2tlLWxpbmVjYXA9InJvdW5kIiBzdHJva2Utd2lkdGg9IjJweCIvPiYjeGE7ICAgICAgPGxpbmUgY2xhc3M9ImNscy0xNCIgeDE9IjM4Mi4zOCIgeTE9IjE0My40MiIgeDI9IjM5NS4yMyIgeTI9IjE0My40MiIgZmlsbD0ibm9uZSIgc3Ryb2tlPSIjMDAwIiBzdHJva2UtbGluZWNhcD0icm91bmQiIHN0cm9rZS13aWR0aD0iMnB4IiBpZD0ic3ZnXzE2MyIvPiYjeGE7ICAgICAgPGxpbmUgY2xhc3M9ImNscy0xNCIgeDE9IjM4Mi4zOCIgeTE9IjE1My40MiIgeDI9IjM5OC44IiB5Mj0iMTUzLjQyIiBmaWxsPSJub25lIiBzdHJva2U9IiMwMDAiIHN0cm9rZS1saW5lY2FwPSJyb3VuZCIgc3Ryb2tlLXdpZHRoPSIycHgiIGlkPSJzdmdfMTY0Ii8+JiN4YTsgICAgICA8bGluZSBjbGFzcz0iY2xzLTE0IiB4MT0iMzgyLjM4IiB5MT0iMTY0Ljg0IiB4Mj0iNDEzLjc5IiB5Mj0iMTY0Ljg0IiBmaWxsPSJub25lIiBzdHJva2U9IiMwMDAiIHN0cm9rZS1saW5lY2FwPSJyb3VuZCIgc3Ryb2tlLXdpZHRoPSIycHgiIGlkPSJzdmdfMTY1Ii8+JiN4YTsgICAgICA8bGluZSBjbGFzcz0iY2xzLTE0IiB4MT0iNDE3LjM2IiB5MT0iMTU2Ljk5IiB4Mj0iNDIwLjkzIiB5Mj0iMTY0LjEzIiBmaWxsPSJub25lIiBzdHJva2U9IiMwMDAiIHN0cm9rZS1saW5lY2FwPSJyb3VuZCIgc3Ryb2tlLXdpZHRoPSIycHgiIGlkPSJzdmdfMTY2Ii8+JiN4YTsgICAgIDwvZz4mI3hhOyAgICAgPGxpbmUgaWQ9IuebtOe6vy00LTIiIGRhdGEtbmFtZT0i55u057q/LTQiIGNsYXNzPSJjbHMtMTUiIHgxPSI0MDIuNzMiIHkxPSIxNDQuNDkiIHgyPSI0MDYuMyIgeTI9IjE0Mi4zNSIgZmlsbD0ibm9uZSIgc3Ryb2tlLWxpbmVjYXA9InJvdW5kIiBzdHJva2U9IiM1ZDVlNWUiLz4mI3hhOyAgICAgPGxpbmUgY2xhc3M9ImNscy0xNSIgeDE9IjQwNi4zIiB5MT0iMTQyLjM1IiB4Mj0iNDA4LjQ0IiB5Mj0iMTQ0LjQ5IiBmaWxsPSJub25lIiBzdHJva2UtbGluZWNhcD0icm91bmQiIHN0cm9rZT0iIzVkNWU1ZSIgaWQ9InN2Z18xNjciLz4mI3hhOyAgICAgPGxpbmUgY2xhc3M9ImNscy0xNSIgeDE9IjQxNC4xNSIgeTE9IjE0MC4yMSIgeDI9IjQwOC40NCIgeTI9IjE0NC40OSIgZmlsbD0ibm9uZSIgc3Ryb2tlLWxpbmVjYXA9InJvdW5kIiBzdHJva2U9IiM1ZDVlNWUiIGlkPSJzdmdfMTY4Ii8+JiN4YTsgICAgIDxsaW5lIGNsYXNzPSJjbHMtMTUiIHgxPSI0MTQuMTUiIHkxPSIxNDAuMjEiIHgyPSI0MTcuNzciIHkyPSIxNDQuNTQiIGZpbGw9Im5vbmUiIHN0cm9rZS1saW5lY2FwPSJyb3VuZCIgc3Ryb2tlPSIjNWQ1ZTVlIiBpZD0ic3ZnXzE2OSIvPiYjeGE7ICAgIDwvZz4mI3hhOyAgIDwvZz4mI3hhOyAgPC9nPiYjeGE7ICA8ZyBpZD0i6aG16Z2iLTEtMyIgZGF0YS1uYW1lPSLpobXpnaItMSI+JiN4YTsgICA8ZyBpZD0i55S75p2/LTMiIGRhdGEtbmFtZT0i55S75p2/Ij4mI3hhOyAgICA8ZyBpZD0iTW9kZWwtQ29tcHJlc3Npb24tLSI+JiN4YTsgICAgIDxsaW5lIGlkPSLnm7Tnur8tNyIgY2xhc3M9ImNscy0xNiIgeDE9IjM5Mi40NyIgeTE9IjMwOC40NSIgeDI9IjQwMy41NiIgeTI9IjMyOS4xMSIgZmlsbD0ibm9uZSIgc3Ryb2tlLWxpbmVjYXA9InNxdWFyZSIgc3Ryb2tlPSIjOTc5Nzk3Ii8+JiN4YTsgICAgIDxsaW5lIGNsYXNzPSJjbHMtMTYiIHgxPSI0MTUuNjkiIHkxPSIzMDkuNjciIHgyPSI0MDQuNDYiIHkyPSIzMjkuODkiIGZpbGw9Im5vbmUiIHN0cm9rZS1saW5lY2FwPSJzcXVhcmUiIHN0cm9rZT0iIzk3OTc5NyIgaWQ9InN2Z18xNzAiLz4mI3hhOyAgICAgPGxpbmUgY2xhc3M9ImNscy0xNiIgeDE9IjQxNS44NCIgeTE9IjMwOC40NSIgeDI9IjM5MS4yOCIgeTI9IjMyOC41NSIgZmlsbD0ibm9uZSIgc3Ryb2tlLWxpbmVjYXA9InNxdWFyZSIgc3Ryb2tlPSIjOTc5Nzk3IiBpZD0ic3ZnXzE3MSIvPiYjeGE7ICAgICA8bGluZSBjbGFzcz0iY2xzLTE2IiB4MT0iMzkwLjk4IiB5MT0iMzA4Ljk1IiB4Mj0iMzkwLjkzIiB5Mj0iMzI4LjU1IiBmaWxsPSJub25lIiBzdHJva2UtbGluZWNhcD0ic3F1YXJlIiBzdHJva2U9IiM5Nzk3OTciIGlkPSJzdmdfMTcyIi8+JiN4YTsgICAgIDxwb2x5bGluZSBpZD0i55u057q/LTgiIGNsYXNzPSJjbHMtMTciIHBvaW50cz0iMzkyLjEgMzM1LjUxIDM5Mi4xIDM0Mi4yNSA0MTQuNTcgMzQyLjI1IiBmaWxsPSJub25lIiBzdHJva2U9IiMwMDAiIHN0cm9rZS1saW5lY2FwPSJyb3VuZCIgc3Ryb2tlLXdpZHRoPSIycHgiIHN0cm9rZS1saW5lam9pbj0icm91bmQiLz4mI3hhOyAgICAgPHBvbHlsaW5lIGlkPSLnm7Tnur8tNC0zIiBkYXRhLW5hbWU9IuebtOe6vy00IiBjbGFzcz0iY2xzLTE4IiBwb2ludHM9IjM4Ny42MSAzMzAuMjcgMzgyLjU2IDMzMC4yNyAzODIuNTYgMzA2LjMgNDI1LjA2IDMwNi4zIDQyNS4wNiAzMzAuMjcgNDEzLjc4IDMzMC4yNyA0MDUuOCAzMzAuMjciIGZpbGw9Im5vbmUiIHN0cm9rZT0iIzBiMGIwYiIgc3Ryb2tlLWxpbmVjYXA9InJvdW5kIiBzdHJva2Utd2lkdGg9IjJweCIgc3Ryb2tlLWxpbmVqb2luPSJyb3VuZCIvPiYjeGE7ICAgICA8ZWxsaXBzZSBpZD0i5qSt5ZyG5b2iLTMiIGRhdGEtbmFtZT0i5qSt5ZyG5b2iIiBjbGFzcz0iY2xzLTE5IiBjeD0iNDE2LjQ0IiBjeT0iMzA3LjA1IiByeD0iNC44NyIgcnk9IjQuNDkiIHN0cm9rZS13aWR0aD0iMnB4IiBmaWxsPSIjZmZmIiBzdHJva2U9IiNhM2MwNTAiLz4mI3hhOyAgICAgPGVsbGlwc2UgY2xhc3M9ImNscy0xOSIgY3g9IjM5Mi40NyIgY3k9IjMzMS4wMiIgcng9IjQuODciIHJ5PSI0LjQ5IiBzdHJva2Utd2lkdGg9IjJweCIgZmlsbD0iI2ZmZiIgc3Ryb2tlPSIjYTNjMDUwIiBpZD0ic3ZnXzE3MyIvPiYjeGE7ICAgICA8ZWxsaXBzZSBjbGFzcz0iY2xzLTE5IiBjeD0iNDE4LjY5IiBjeT0iMzQyLjI1IiByeD0iNC44NyIgcnk9IjQuNDkiIHN0cm9rZS13aWR0aD0iMnB4IiBmaWxsPSIjZmZmIiBzdHJva2U9IiNhM2MwNTAiIGlkPSJzdmdfMTc0Ii8+JiN4YTsgICAgIDxjaXJjbGUgY2xhc3M9ImNscy0yMCIgY3g9IjM5MS4zNSIgY3k9IjMwNy4wNSIgcj0iMi4yNSIgc3Ryb2tlPSIjMDAwIiBzdHJva2Utd2lkdGg9IjJweCIgZmlsbD0iI2ZmZiIgaWQ9InN2Z18xNzUiLz4mI3hhOyAgICAgPGNpcmNsZSBjbGFzcz0iY2xzLTIwIiBjeD0iNDA0LjA4IiBjeT0iMzMwLjI3IiByPSIyLjI1IiBzdHJva2U9IiMwMDAiIHN0cm9rZS13aWR0aD0iMnB4IiBmaWxsPSIjZmZmIiBpZD0ic3ZnXzE3NiIvPiYjeGE7ICAgIDwvZz4mI3hhOyAgIDwvZz4mI3hhOyAgPC9nPiYjeGE7ICA8dGV4dCBmaWxsPSIjMDAwMDAwIiBzdHJva2Utd2lkdGg9IjAiIHg9IjE0My45MjI1NyIgeT0iMjcyLjQ1NjIiIGlkPSJzdmdfMTc3IiBmb250LXNpemU9IjgiIGZvbnQtZmFtaWx5PSJOb3RvIFNhbnMgSlAiIHRleHQtYW5jaG9yPSJzdGFydCIgeG1sOnNwYWNlPSJwcmVzZXJ2ZSIgZm9udC13ZWlnaHQ9ImJvbGQiIGZpbHRlcj0idXJsKCNzdmdfMTc3X2JsdXIpIiBkYXRhLWltbWVyc2l2ZS10cmFuc2xhdGUtZWZmZWN0PSIxIiBkYXRhLWltbWVyc2l2ZV90cmFuc2xhdGVfd2Fsa2VkPSIxNzM5MWJmMS1jYWY5LTQwYjMtYmJhYi1kZTNiNDY1NDIzNTciIHN0cm9rZT0iIzAwMCIgdHJhbnNmb3JtPSJtYXRyaXgoMC45ODgwODkgMCAwIDEgMS43MTQzMiAwKSIgc3R5bGU9ImN1cnNvcjogbW92ZTsiPmNvZGU8L3RleHQ+JiN4YTsgPC9nPiYjeGE7PC9zdmc+;imageBackground=default;fontSize=16;" vertex="1" parent="zqu9NT_KVwhcAB9xp01v-13">
          <mxGeometry width="807" height="378" as="geometry" />
        </mxCell>
        <mxCell id="zqu9NT_KVwhcAB9xp01v-2" value="&lt;b style=&quot;font-size: 16px;&quot;&gt;&lt;font face=&quot;Times New Roman&quot; style=&quot;font-size: 16px;&quot;&gt;架构搜索NAS&lt;/font&gt;&lt;/b&gt;" style="text;html=1;strokeColor=none;fillColor=none;align=center;verticalAlign=middle;whiteSpace=wrap;rounded=0;fontSize=16;" vertex="1" parent="zqu9NT_KVwhcAB9xp01v-13">
          <mxGeometry x="360.5" y="174" width="86" height="30" as="geometry" />
        </mxCell>
        <mxCell id="zqu9NT_KVwhcAB9xp01v-5" value="&lt;font face=&quot;Times New Roman&quot; style=&quot;font-size: 16px;&quot;&gt;&lt;b style=&quot;font-size: 16px;&quot;&gt;特征工程&lt;/b&gt;&lt;/font&gt;" style="text;html=1;strokeColor=none;fillColor=none;align=center;verticalAlign=middle;whiteSpace=wrap;rounded=0;fontSize=16;" vertex="1" parent="zqu9NT_KVwhcAB9xp01v-13">
          <mxGeometry x="262" y="257" width="86" height="30" as="geometry" />
        </mxCell>
        <mxCell id="zqu9NT_KVwhcAB9xp01v-6" value="&lt;font face=&quot;Times New Roman&quot; style=&quot;font-size: 16px;&quot;&gt;&lt;b style=&quot;font-size: 16px;&quot;&gt;模型压缩&lt;/b&gt;&lt;/font&gt;" style="text;html=1;strokeColor=none;fillColor=none;align=center;verticalAlign=middle;whiteSpace=wrap;rounded=0;fontSize=16;" vertex="1" parent="zqu9NT_KVwhcAB9xp01v-13">
          <mxGeometry x="360.5" y="348" width="86" height="30" as="geometry" />
        </mxCell>
        <mxCell id="zqu9NT_KVwhcAB9xp01v-7" value="&lt;font face=&quot;Times New Roman&quot; style=&quot;font-size: 16px;&quot;&gt;&lt;b style=&quot;font-size: 16px;&quot;&gt;参数调整&lt;/b&gt;&lt;/font&gt;" style="text;html=1;strokeColor=none;fillColor=none;align=center;verticalAlign=middle;whiteSpace=wrap;rounded=0;fontSize=16;" vertex="1" parent="zqu9NT_KVwhcAB9xp01v-13">
          <mxGeometry x="460" y="260" width="86" height="30" as="geometry" />
        </mxCell>
        <mxCell id="zqu9NT_KVwhcAB9xp01v-8" value="&lt;b style=&quot;font-size: 16px;&quot;&gt;&lt;font face=&quot;Times New Roman&quot; style=&quot;font-size: 16px;&quot;&gt;Web UI&lt;/font&gt;&lt;/b&gt;" style="text;html=1;strokeColor=none;fillColor=none;align=center;verticalAlign=middle;whiteSpace=wrap;rounded=0;fontSize=16;" vertex="1" parent="zqu9NT_KVwhcAB9xp01v-13">
          <mxGeometry x="510" y="60" width="70" height="30" as="geometry" />
        </mxCell>
        <mxCell id="zqu9NT_KVwhcAB9xp01v-14" value="&lt;font face=&quot;Times New Roman&quot; style=&quot;font-size: 16px;&quot;&gt;&lt;b style=&quot;font-size: 16px;&quot;&gt;后端服务&lt;/b&gt;&lt;/font&gt;" style="text;html=1;strokeColor=none;fillColor=none;align=center;verticalAlign=middle;whiteSpace=wrap;rounded=0;fontSize=16;" vertex="1" parent="zqu9NT_KVwhcAB9xp01v-13">
          <mxGeometry x="210" y="60" width="86" height="30" as="geometry" />
        </mxCell>
        <mxCell id="zqu9NT_KVwhcAB9xp01v-15" value="&lt;font face=&quot;Times New Roman&quot;&gt;&lt;b&gt;模型训练&lt;/b&gt;&lt;/font&gt;" style="text;html=1;strokeColor=none;fillColor=none;align=center;verticalAlign=middle;whiteSpace=wrap;rounded=0;fontSize=16;" vertex="1" parent="zqu9NT_KVwhcAB9xp01v-13">
          <mxGeometry x="640" y="280" width="70" height="30" as="geometry" />
        </mxCell>
      </root>
    </mxGraphModel>
  </diagram>
</mxfile>
